<svg width="52" height="18" viewBox="0 0 52 18" fill="none" xmlns="http://www.w3.org/2000/svg">
<path d="M6 14.39V8.43C7.24 8.69 8.59 8.91 10 9.1V15.08C8.46 14.87 7.12 14.64 6 14.4V14.39ZM12 9.32C13.34 9.46 14.69 9.57 16 9.66V15.67C14.57 15.57 13.23 15.45 12 15.31V9.32ZM18 9.78C19.46 9.86 20.82 9.91 22 9.94V15.95C20.6 15.91 19.27 15.86 18 15.79V9.78ZM24 9.98C24.95 10 25.65 10 26 10C26.35 10 27.05 10 28 9.98V15.98C27.34 15.98 26.68 16 26 16C25.32 16 24.66 16 24 15.98V9.98ZM30 9.93C31.18 9.9 32.54 9.85 34 9.77V15.78C32.73 15.85 31.4 15.9 30 15.94V9.93ZM36 9.65C37.31 9.56 38.66 9.45 40 9.31V15.3C38.77 15.43 37.43 15.55 36 15.66V9.65ZM46 8.42V14.39C44.88 14.63 43.54 14.86 42 15.07V9.09C43.41 8.91 44.76 8.69 46 8.42ZM48 13.88V7.92C48.68 7.73 49.35 7.48 50 7.18V12.91C49.43 13.4 48.74 13.73 48 13.88ZM26 2C39.8 2 48.67 3.73 49.93 5C48.67 6.27 39.81 8 26 8C12.19 8 3.33 6.27 2.07 5C3.33 3.73 12.2 2 26 2ZM2 7.18C2.65 7.48 3.32 7.73 4 7.92V13.88C3.26 13.73 2.57 13.4 2 12.91V7.18ZM7.62 16.73C13.71 17.59 19.85 18.01 26 18C27.35 18 34.04 17.96 40.29 17.29L45.45 16.54C49.21 15.8 51.99 14.68 51.99 13V5C52 0.14 28.66 0 26 0C23.34 0 0 0.14 0 5V13C0 14.01 1.01 14.81 2.62 15.45L7.62 16.74V16.73Z" fill="black"/>
</svg>
