<svg width="44" height="63" viewBox="0 0 44 63" fill="none" xmlns="http://www.w3.org/2000/svg">
<g clip-path="url(#clip0_409_3793)">
<path d="M21.9994 0.177734C13.088 0.177734 5.86523 7.40119 5.86523 16.3134V27.7183H8.27908V16.3134C8.27908 12.6473 9.70527 9.20236 12.299 6.61024C14.889 4.02 18.3355 2.5918 21.9994 2.5918C25.6633 2.5918 29.1098 4.01812 31.7016 6.61024C34.2917 9.20049 35.7197 12.6473 35.7197 16.3134V27.7183H38.1336V16.3134C38.1336 7.40119 30.9108 0.177734 21.9994 0.177734Z" fill="#333333"/>
<path d="M21.998 5.00781C15.7647 5.00781 10.6934 10.0796 10.6934 16.3134V27.7184H13.1072V16.3134C13.1072 11.4103 17.0953 7.42188 21.998 7.42188C26.9006 7.42188 30.8887 11.4103 30.8887 16.3134V27.7184H33.3026V16.3134C33.3026 10.0777 28.2312 5.00781 21.998 5.00781Z" fill="#333333"/>
<path d="M13.1098 25.3047V27.7188H35.7209V25.3047H13.1098ZM13.1098 25.3047V27.7188H35.7209V25.3047H13.1098ZM41.0902 25.3047H2.91092C1.54095 25.3047 0.427734 26.4161 0.427734 27.7881V40.9249C0.427734 52.8396 10.0869 62.4997 22.0006 62.4997C27.9583 62.4997 33.352 60.0856 37.2558 56.1815C41.1595 52.2774 43.5752 46.8832 43.5752 40.9249V27.7881C43.5752 26.4161 42.4639 25.3047 41.0921 25.3047H41.0902ZM41.1595 40.9249C41.1595 46.0417 39.1655 50.8529 35.5485 54.4721C31.9296 58.0914 27.1187 60.0837 22.0006 60.0837C16.8824 60.0837 12.0734 58.0914 8.45453 54.4721C4.83563 50.8529 2.84346 46.0417 2.84346 40.9249V27.7881C2.84346 27.7506 2.87344 27.7188 2.91092 27.7188H41.0921C41.1295 27.7188 41.1614 27.7506 41.1614 27.7881V40.9249H41.1595ZM13.1098 25.3047V27.7188H35.7209V25.3047H13.1098Z" fill="#333333"/>
<path d="M24.1646 50.0591L24.2921 51.2399H19.7061L19.8336 50.0591L20.3583 45.2291L20.6207 42.8151L20.6694 42.3727C19.648 41.8779 18.9434 40.8302 18.9434 39.6194C18.9434 37.9307 20.3115 36.5625 22 36.5625C23.6886 36.5625 25.0567 37.9326 25.0567 39.6194C25.0567 40.8302 24.352 41.8779 23.3306 42.3727L23.3794 42.8151L23.6417 45.2291L23.9041 47.6432L24.1665 50.0573L24.1646 50.0591Z" fill="#333333"/>
</g>
<defs>
<clipPath id="clip0_409_3793">
<rect width="43.1456" height="62.3215" fill="white" transform="translate(0.427734 0.338867)"/>
</clipPath>
</defs>
</svg>
