<svg width="29" height="29" viewBox="0 0 29 29" fill="none" xmlns="http://www.w3.org/2000/svg">
<path d="M14.3292 0.0821622L16.4193 10.8526C16.5789 11.6751 17.2344 12.3107 18.0614 12.445L28.899 14.204C29.0151 14.2247 29.0151 14.3906 28.899 14.4114L18.0614 16.1704C17.2344 16.3046 16.5789 16.9403 16.4193 17.7628L14.3292 28.5332C14.3085 28.6452 14.1467 28.6452 14.126 28.5332L11.992 17.7452C11.831 16.9315 11.1843 16.3018 10.3666 16.1625L0.0870944 14.4114C-0.0290323 14.3906 -0.0290323 14.2247 0.0870944 14.204L10.3666 12.4529C11.1843 12.3136 11.831 11.6838 11.992 10.8702L14.126 0.0821622C14.1467 -0.0298163 14.3085 -0.0298163 14.3292 0.0821622Z" fill="#00E492"/>
</svg>
