<svg width="44" height="64" viewBox="0 0 44 64" fill="none" xmlns="http://www.w3.org/2000/svg">
<g clip-path="url(#clip0_417_9174)">
<path d="M21.9994 0.754883C13.088 0.754883 5.86523 7.97833 5.86523 16.8905V28.2955H8.27908V16.8905C8.27908 13.2244 9.70527 9.77951 12.299 7.18739C14.889 4.59714 18.3355 3.16895 21.9994 3.16895C25.6633 3.16895 29.1098 4.59527 31.7016 7.18739C34.2917 9.77764 35.7197 13.2244 35.7197 16.8905V28.2955H38.1336V16.8905C38.1336 7.97833 30.9108 0.754883 21.9994 0.754883Z" fill="#333333"/>
<path d="M21.998 5.58398C15.7647 5.58398 10.6934 10.6558 10.6934 16.8896V28.2946H13.1072V16.8896C13.1072 11.9865 17.0953 7.99805 21.998 7.99805C26.9006 7.99805 30.8887 11.9865 30.8887 16.8896V28.2946H33.3026V16.8896C33.3026 10.6539 28.2312 5.58398 21.998 5.58398Z" fill="#333333"/>
<path d="M13.1098 25.8809V28.2949H35.7209V25.8809H13.1098ZM13.1098 25.8809V28.2949H35.7209V25.8809H13.1098ZM41.0902 25.8809H2.91092C1.54095 25.8809 0.427734 26.9923 0.427734 28.3643V41.5011C0.427734 53.4158 10.0869 63.0758 22.0006 63.0758C27.9583 63.0758 33.352 60.6618 37.2558 56.7576C41.1595 52.8535 43.5752 47.4594 43.5752 41.5011V28.3643C43.5752 26.9923 42.4639 25.8809 41.0921 25.8809H41.0902ZM41.1595 41.5011C41.1595 46.6178 39.1655 51.4291 35.5485 55.0483C31.9296 58.6675 27.1187 60.6599 22.0006 60.6599C16.8824 60.6599 12.0734 58.6675 8.45453 55.0483C4.83563 51.4291 2.84346 46.6178 2.84346 41.5011V28.3643C2.84346 28.3268 2.87344 28.2949 2.91092 28.2949H41.0921C41.1295 28.2949 41.1614 28.3268 41.1614 28.3643V41.5011H41.1595ZM13.1098 25.8809V28.2949H35.7209V25.8809H13.1098Z" fill="#333333"/>
<path d="M24.1646 50.6363L24.2921 51.8171H19.7061L19.8336 50.6363L20.3583 45.8063L20.6207 43.3922L20.6694 42.9499C19.648 42.4551 18.9434 41.4074 18.9434 40.1966C18.9434 38.5079 20.3115 37.1396 22 37.1396C23.6886 37.1396 25.0567 38.5097 25.0567 40.1966C25.0567 41.4074 24.352 42.4551 23.3306 42.9499L23.3794 43.3922L23.6417 45.8063L23.9041 48.2204L24.1665 50.6344L24.1646 50.6363Z" fill="#333333"/>
</g>
<defs>
<clipPath id="clip0_417_9174">
<rect width="43.1456" height="62.3215" fill="white" transform="translate(0.427734 0.915039)"/>
</clipPath>
</defs>
</svg>
	