<svg width="100" height="100" viewBox="0 0 100 100" xmlns="http://www.w3.org/2000/svg" fill="none">
<circle cx="50" cy="50" r="50" fill="#000"/>
<g transform="scale(0.0925925926)">
<path d="M773.426 243.379C751.454 243.379 731.055 254.771 719.545 273.498L595.539 457.605C591.5 463.672 593.139 471.853 599.207 475.892C604.125 479.171 610.632 478.765 615.111 474.912L737.173 369.041C739.201 367.216 742.328 367.402 744.153 369.43C744.981 370.36 745.421 371.56 745.421 372.793V704.264C745.421 707.002 743.207 709.199 740.469 709.199C738.998 709.199 737.612 708.557 736.683 707.424L367.708 265.757C355.691 251.576 338.046 243.396 319.471 243.379H306.576C271.674 243.379 243.381 271.672 243.381 306.574V773.424C243.381 808.326 271.674 836.619 306.576 836.619C328.547 836.619 348.947 825.227 360.457 806.5L484.463 622.393C488.502 616.326 486.863 608.145 480.795 604.106C475.877 600.827 469.37 601.233 464.891 605.086L342.829 710.957C340.801 712.782 337.674 712.596 335.849 710.568C335.021 709.638 334.581 708.438 334.598 707.205V375.65C334.598 372.912 336.812 370.714 339.55 370.714C341.004 370.714 342.407 371.357 343.336 372.489L712.26 814.241C724.277 828.422 741.922 836.602 760.497 836.619H773.393C808.294 836.636 836.604 808.36 836.638 773.458V306.574C836.638 271.672 808.345 243.379 773.443 243.379H773.426Z" fill="#00EC97"/>
</g>
</svg>
